{
.appVersion = "3151";
.formatVersion = 3;
date = "2023-11-07 14:50:43 +0000";
familyName = Mambo;
fontMaster = (
{
guides = (
{
pos = (-1,850);
},
{
pos = (-1,748);
},
{
pos = (-1,47);
},
{
pos = (1461,-149);
},
{
pos = (-1,748);
},
{
pos = (-1,74);
}
);
id = m01;
metricValues = (
{
over = 20;
pos = 900;
},
{
over = 20;
pos = 800;
},
{
over = 20;
pos = 600;
},
{
over = -20;
},
{
over = -20;
pos = -200;
},
{
over = -16;
}
);
name = Regular;
userData = {
GSCornerRadius = 40;
};
}
);
glyphs = (
{
glyphname = A;
lastChange = "2023-12-06 05:58:10 +0000";
layers = (
{
layerId = m01;
shapes = (
{
closed = 1;
nodes = (
(218,817,o),
(57,346,o),
(2,73,cs),
(-6,31,o),
(12,-2,o),
(40,-2,cs),
(301,-2,ls),
(324,-2,o),
(341,16,o),
(341,40,cs),
(344,425,o),
(359,737,o),
(377,737,cs),
(395,737,o),
(410,425,o),
(413,40,cs),
(413,16,o),
(430,-2,o),
(453,-2,cs),
(714,-2,ls),
(742,-2,o),
(762,20,o),
(757,48,cs),
(706,316,o),
(540,817,o),
(376,817,cs)
);
},
{
closed = 1;
nodes = (
(343,247,l),
(414,247,l),
(414,287,l),
(343,287,l)
);
}
);
width = 778;
}
);
unicode = 65;
},
{
glyphname = B;
lastChange = "2023-12-06 06:01:07 +0000";
layers = (
{
layerId = m01;
shapes = (
{
closed = 1;
nodes = (
(193,734,ls),
(192,735,o),
(191,737,o),
(192,738,cs),
(193,741,o),
(198,740,o),
(203,739,cs),
(298,719,o),
(398,622,o),
(413,568,cs),
(414,565,o),
(411,562,o),
(408,564,cs)
);
},
{
closed = 1;
nodes = (
(384,73,o),
(379,73,o),
(378,76,cs),
(205,688,ls),
(204,691,o),
(207,692,o),
(209,690,cs),
(335,564,o),
(396,241,o),
(384,77,cs)
);
},
{
closed = 1;
nodes = (
(480,474,o),
(626,473,o),
(626,635,cs),
(626,813,o),
(391,800,o),
(391,800,c),
(81,800,ls),
(58,800,o),
(40,782,o),
(40,759,cs),
(40,42,ls),
(40,19,o),
(58,1,o),
(81,1,cs),
(543,1,ls),
(587,1,o),
(729,45,o),
(729,231,cs),
(729,418,o),
(593,452,o),
(546,462,cs)
);
}
);
width = 729;
}
);
unicode = 66;
changeCount = 1;
},
{
glyphname = C;
lastChange = "2023-12-05 16:23:33 +0000";
layers = (
{
layerId = m01;
shapes = (
{
closed = 1;
nodes = (
(506,377,ls),
(484,377,o),
(467,361,o),
(466,338,cs),
(462,251,o),
(451,55,o),
(438,55,cs),
(428,55,o),
(418,167,o),
(412,341,cs),
(411,378,o),
(411,416,o),
(412,454,cs),
(419,628,o),
(428,740,o),
(438,740,cs),
(452,740,o),
(462,543,o),
(466,456,cs),
(467,433,o),
(484,417,o),
(506,417,cs),
(790,417,ls),
(816,417,o),
(836,437,o),
(832,464,cs),
(798,662,o),
(619,815,o),
(439,815,cs),
(240,815,o),
(40,628,o),
(40,398,cs),
(40,166,o),
(240,-20,o),
(439,-20,cs),
(618,-20,o),
(797,131,o),
(832,330,cs),
(836,356,o),
(816,377,o),
(790,377,cs)
);
}
);
width = 873;
}
);
unicode = 67;
},
{
glyphname = D;
lastChange = "2023-12-04 18:01:18 +0000";
layers = (
{
layerId = m01;
shapes = (
{
closed = 1;
nodes = (
(423,59,o),
(418,58,o),
(417,61,cs),
(245,739,ls),
(244,742,o),
(248,744,o),
(250,742,cs),
(377,615,o),
(423,226,o),
(423,62,cs)
);
},
{
closed = 1;
nodes = (
(71,795,ls),
(48,795,o),
(30,777,o),
(30,754,cs),
(30,41,ls),
(30,18,o),
(48,0,o),
(71,0,cs),
(376,0,ls),
(568,0,o),
(740,177,o),
(740,398,cs),
(740,618,o),
(547,795,o),
(355,795,cs)
);
}
);
width = 770;
}
);
unicode = 68;
},
{
glyphname = E;
lastChange = "2023-12-05 14:19:58 +0000";
layers = (
{
layerId = m01;
shapes = (
{
closed = 1;
nodes = (
(505,396,l),
(505,445,o),
(476,465,o),
(111,737,cs),
(110,738,o),
(110,740,o),
(111,741,cs),
(112,742,o),
(112,742,o),
(113,742,cs),
(565,511,ls),
(597,495,o),
(625,522,o),
(625,555,cs),
(625,755,ls),
(625,778,o),
(607,796,o),
(584,796,cs),
(71,796,ls),
(48,796,o),
(31,779,o),
(31,756,cs),
(30,499,l),
(35,456,o),
(52,427,o),
(100,398,c),
(99,397,o),
(98,397,o),
(97,396,c)
);
},
{
closed = 1;
nodes = (
(98,395,o),
(99,395,o),
(100,394,c),
(52,365,o),
(35,336,o),
(30,293,c),
(31,36,ls),
(31,13,o),
(48,-4,o),
(71,-4,cs),
(584,-4,ls),
(607,-4,o),
(625,14,o),
(625,37,cs),
(625,237,ls),
(625,270,o),
(597,296,o),
(565,281,cs),
(83,50,l),
(82,50,o),
(82,50,o),
(81,51,cs),
(80,52,o),
(80,54,o),
(81,55,cs),
(436,297,ls),
(476,324,o),
(505,348,o),
(505,396,c),
(97,396,l)
);
}
);
width = 655;
}
);
unicode = 69;
},
{
glyphname = F;
lastChange = "2023-12-04 19:31:22 +0000";
layers = (
{
layerId = m01;
shapes = (
{
closed = 1;
nodes = (
(111,737,ls),
(110,738,o),
(110,740,o),
(111,741,cs),
(112,742,o),
(112,742,o),
(113,742,c),
(565,511,ls),
(597,495,o),
(625,522,o),
(625,555,cs),
(625,755,ls),
(625,778,o),
(607,796,o),
(584,796,cs),
(71,796,ls),
(48,796,o),
(32,780,o),
(31,757,c),
(30,758,l),
(30,30,ls),
(30,13,o),
(45,-2,o),
(62,-2,cs),
(302,-2,ls),
(325,-2,o),
(335,16,o),
(335,39,cs),
(335,341,l),
(508,341,ls),
(531,341,o),
(549,359,o),
(549,382,cs),
(549,416,ls),
(549,428,o),
(542,439,o),
(532,445,cs)
);
}
);
width = 655;
}
);
unicode = 70;
},
{
glyphname = G;
lastChange = "2023-12-05 07:34:24 +0000";
layers = (
{
guides = (
{
pos = (-84,474);
}
);
layerId = m01;
shapes = (
{
closed = 1;
nodes = (
(719,473,ls),
(753,473,o),
(763,499,o),
(761,534,cs),
(752,694,o),
(547,815,o),
(399,815,cs),
(200,815,o),
(0,628,o),
(0,398,cs),
(0,166,o),
(200,-20,o),
(399,-20,cs),
(578,-20,o),
(727,131,o),
(762,330,cs),
(766,356,o),
(766,377,o),
(740,377,cs),
(371,377,l),
(371,402,o),
(371,428,o),
(372,454,cs),
(379,628,o),
(388,740,o),
(398,740,cs),
(408,740,o),
(417,603,o),
(422,511,cs),
(423,489,o),
(440,473,o),
(462,473,cs)
);
},
{
closed = 1;
nodes = (
(413,332,l),
(410,156,o),
(407,55,o),
(398,55,cs),
(388,55,o),
(378,163,o),
(372,332,c)
);
}
);
width = 794;
}
);
unicode = 71;
},
{
glyphname = H;
lastChange = "2023-12-05 16:39:10 +0000";
layers = (
{
layerId = m01;
shapes = (
{
closed = 1;
nodes = (
(443,800,ls),
(417,800,o),
(403,785,o),
(403,760,cs),
(403,593,ls),
(403,583,o),
(400,567,o),
(395,558,cs),
(390,549,o),
(376,549,o),
(368,557,cs),
(359,566,o),
(357,581,o),
(357,593,cs),
(357,760,ls),
(357,785,o),
(343,800,o),
(317,800,cs),
(80,800,ls),
(54,800,o),
(40,785,o),
(40,760,cs),
(40,40,ls),
(40,14,o),
(54,0,o),
(80,0,cs),
(317,0,ls),
(343,0,o),
(357,14,o),
(357,40,cs),
(357,478,ls),
(357,489,o),
(359,500,o),
(364,510,cs),
(370,519,o),
(387,520,o),
(395,511,cs),
(403,502,o),
(403,490,o),
(403,478,cs),
(403,40,ls),
(403,14,o),
(417,0,o),
(443,0,cs),
(680,0,ls),
(706,0,o),
(720,14,o),
(720,40,cs),
(720,760,ls),
(720,785,o),
(706,800,o),
(680,800,cs)
);
}
);
width = 760;
}
);
unicode = 72;
},
{
glyphname = I;
lastChange = "2023-12-05 17:29:12 +0000";
layers = (
{
layerId = m01;
shapes = (
{
closed = 1;
nodes = (
(40,41,ls),
(40,18,o),
(58,0,o),
(81,0,cs),
(286,0,ls),
(309,0,o),
(327,18,o),
(327,41,cs),
(327,759,ls),
(327,782,o),
(309,800,o),
(286,800,cs),
(81,800,ls),
(58,800,o),
(40,782,o),
(40,759,cs)
);
}
);
width = 367;
}
);
unicode = 73;
},
{
glyphname = J;
lastChange = "2023-11-29 20:16:05 +0000";
layers = (
{
layerId = m01;
shapes = (
{
closed = 1;
nodes = (
(353,800,ls),
(325,800,o),
(312,783,o),
(318,755,cs),
(469,64,l),
(458,64,o),
(411,198,o),
(360,350,cs),
(351,377,o),
(346,394,o),
(320,394,cs),
(69,394,ls),
(43,394,o),
(27,378,o),
(31,348,cs),
(61,139,o),
(192,-20,o),
(424,-20,cs),
(541,-20,o),
(636,78,o),
(636,199,cs),
(636,759,ls),
(636,786,o),
(622,800,o),
(596,800,cs)
);
}
);
width = 666;
}
);
unicode = 74;
},
{
glyphname = K;
lastChange = "2023-12-04 19:23:42 +0000";
layers = (
{
layerId = m01;
shapes = (
{
closed = 1;
nodes = (
(584,556,o),
(680,679,o),
(735,761,cs),
(749,783,o),
(733,800,o),
(701,800,cs),
(427,800,ls),
(402,800,o),
(388,785,o),
(387,760,cs),
(385,708,o),
(381,638,o),
(379,592,cs),
(377,567,o),
(372,553,o),
(365,553,cs),
(357,553,o),
(347,568,o),
(347,593,cs),
(347,760,ls),
(347,785,o),
(333,800,o),
(307,800,cs),
(70,800,ls),
(44,800,o),
(30,785,o),
(30,760,cs),
(30,40,ls),
(30,14,o),
(44,0,o),
(70,0,cs),
(307,0,ls),
(333,0,o),
(347,14,o),
(347,40,cs),
(347,478,ls),
(347,504,o),
(357,518,o),
(365,518,cs),
(373,518,o),
(378,504,o),
(379,479,cs),
(395,39,l),
(396,14,o),
(410,0,o),
(435,0,cs),
(725,0,ls),
(753,0,o),
(768,16,o),
(760,45,cs),
(713,198,o),
(601,447,o),
(479,524,c)
);
}
);
width = 792;
}
);
unicode = 75;
},
{
glyphname = L;
lastChange = "2023-11-29 20:55:49 +0000";
layers = (
{
layerId = m01;
shapes = (
{
closed = 1;
nodes = (
(31,111,l),
(30,111,l),
(30,41,ls),
(30,15,o),
(44,1,o),
(70,1,cs),
(543,1,ls),
(556,1,o),
(566,15,o),
(566,30,cs),
(566,261,ls),
(566,284,o),
(552,300,o),
(536,294,cs)
);
},
{
closed = 1;
nodes = (
(316,243,ls),
(328,249,o),
(335,262,o),
(335,275,cs),
(335,760,ls),
(335,783,o),
(325,801,o),
(302,801,cs),
(61,801,ls),
(44,801,o),
(30,786,o),
(30,769,cs),
(30,97,l)
);
}
);
width = 566;
}
);
unicode = 76;
},
{
glyphname = M;
lastChange = "2023-11-29 20:24:05 +0000";
layers = (
{
layerId = m01;
shapes = (
{
closed = 1;
nodes = (
(577,800,o),
(478,819,o),
(437,704,c),
(421,657,l),
(404,704,l),
(363,819,o),
(264,801,o),
(71,800,cs),
(49,800,o),
(30,781,o),
(30,759,cs),
(30,42,l),
(30,19,o),
(47,1,o),
(70,1,c),
(303,0,l),
(318,0,o),
(329,12,o),
(325,28,c),
(275,223,l),
(262,273,o),
(198,700,o),
(202,701,cs),
(207,702,o),
(237,578,o),
(269,424,c),
(352,97,o),
(365,76,o),
(383,58,cs),
(405,35,o),
(435,36,o),
(458,58,cs),
(476,76,o),
(489,97,o),
(572,424,c),
(604,578,o),
(634,702,o),
(639,701,cs),
(643,700,o),
(579,273,o),
(566,223,c),
(516,28,l),
(512,12,o),
(523,0,o),
(538,0,c),
(771,1,l),
(794,1,o),
(811,19,o),
(811,42,c),
(811,759,ls),
(811,781,o),
(792,800,o),
(770,800,cs)
);
}
);
width = 841;
}
);
unicode = 77;
},
{
glyphname = N;
lastChange = "2023-11-29 20:23:27 +0000";
layers = (
{
layerId = m01;
shapes = (
{
closed = 1;
nodes = (
(271,3,ls),
(299,3,o),
(319,25,o),
(314,53,cs),
(285,223,l),
(272,273,o),
(198,700,o),
(202,701,cs),
(207,702,o),
(237,578,o),
(269,424,c),
(315,243,o),
(345,125,o),
(367,53,cs),
(376,21,o),
(405,1,o),
(438,1,cs),
(697,1,ls),
(720,1,o),
(738,19,o),
(738,42,cs),
(738,759,ls),
(738,782,o),
(720,800,o),
(697,800,cs),
(506,800,ls),
(478,800,o),
(459,777,o),
(464,749,cs),
(493,579,l),
(506,529,o),
(570,102,o),
(566,101,cs),
(561,100,o),
(531,224,o),
(499,378,c),
(458,543,o),
(433,660,o),
(417,738,cs),
(410,775,o),
(380,799,o),
(342,799,cs),
(71,799,ls),
(48,799,o),
(30,781,o),
(30,758,cs),
(30,44,ls),
(30,21,o),
(48,3,o),
(71,3,cs)
);
}
);
width = 768;
}
);
unicode = 78;
},
{
glyphname = O;
lastChange = "2023-12-05 07:22:17 +0000";
layers = (
{
layerId = m01;
shapes = (
{
closed = 1;
nodes = (
(459,169,o),
(439,57,o),
(428,57,cs),
(418,57,o),
(397,169,o),
(391,343,cs),
(391,380,o),
(391,418,o),
(391,456,cs),
(398,630,o),
(418,742,o),
(428,742,cs),
(439,742,o),
(461,630,o),
(465,456,cs),
(466,418,o),
(466,380,o),
(465,343,cs)
);
},
{
closed = 1;
nodes = (
(230,817,o),
(30,630,o),
(30,400,cs),
(30,168,o),
(230,-18,o),
(429,-18,cs),
(626,-18,o),
(826,168,o),
(826,400,cs),
(826,630,o),
(626,817,o),
(429,817,cs)
);
}
);
width = 856;
}
);
unicode = 79;
},
{
glyphname = Q;
lastChange = "2023-12-04 19:34:28 +0000";
layers = (
{
layerId = m01;
shapes = (
{
closed = 1;
nodes = (
(449,169,o),
(439,57,o),
(428,57,cs),
(418,57,o),
(407,169,o),
(401,343,cs),
(401,380,o),
(401,418,o),
(401,456,cs),
(408,630,o),
(418,742,o),
(428,742,cs),
(439,742,o),
(451,630,o),
(455,456,cs),
(456,418,o),
(456,380,o),
(455,343,cs)
);
},
{
closed = 1;
nodes = (
(230,817,o),
(30,630,o),
(30,400,cs),
(30,168,o),
(230,-18,o),
(429,-18,cs),
(626,-18,o),
(826,168,o),
(826,400,cs),
(826,630,o),
(626,817,o),
(429,817,cs)
);
},
{
closed = 1;
nodes = (
(632,43,o),
(466,-8,o),
(474,-7,c),
(416,-52,ls),
(361,-95,o),
(404,-152,o),
(440,-152,cs),
(785,-152,ls),
(811,-152,o),
(825,-138,o),
(825,-112,cs),
(825,-13,ls),
(825,15,o),
(808,29,o),
(781,23,cs),
(492,-38,l),
(597,23,ls)
);
}
);
width = 855;
}
);
unicode = 81;
},
{
glyphname = R;
lastChange = "2023-12-05 16:39:22 +0000";
layers = (
{
layerId = m01;
shapes = (
{
closed = 1;
nodes = (
(193,734,ls),
(190,736,o),
(192,740,o),
(195,739,cs),
(292,713,o),
(388,623,o),
(413,567,cs),
(414,564,o),
(411,561,o),
(408,563,cs)
);
},
{
closed = 1;
nodes = (
(551,470,ls),
(545,487,o),
(626,512,o),
(626,634,cs),
(626,812,o),
(391,799,o),
(391,799,c),
(40,799,l),
(40,41,ls),
(40,18,o),
(58,0,o),
(81,0,cs),
(338,0,ls),
(369,0,o),
(389,27,o),
(381,57,cs),
(205,687,ls),
(204,691,o),
(208,693,o),
(210,690,cs),
(254,623,o),
(293,506,o),
(327,382,c),
(440,26,ls),
(445,10,o),
(459,0,o),
(475,0,cs),
(656,0,ls),
(690,0,o),
(711,30,o),
(699,62,cs)
);
}
);
width = 702;
}
);
unicode = 82;
},
{
glyphname = S;
lastChange = "2023-12-05 17:28:01 +0000";
layers = (
{
layerId = m01;
shapes = (
{
closed = 1;
nodes = (
(577,438,o),
(500,452,o),
(444,465,cs),
(426,471,o),
(367,476,o),
(355,494,cs),
(347,506,o),
(344,531,o),
(344,560,cs),
(347,829,o),
(383,819,o),
(389,549,cs),
(389,522,o),
(404,496,o),
(429,496,cs),
(640,496,ls),
(663,496,o),
(677,506,o),
(677,525,cs),
(677,588,o),
(552,817,o),
(364,817,cs),
(220,817,o),
(59,659,o),
(59,559,cs),
(59,500,o),
(118,462,o),
(173,443,cs),
(232,420,o),
(296,415,o),
(355,391,cs),
(370,384,o),
(396,381,o),
(396,358,cs),
(396,56,o),
(344,-140,o),
(344,324,cs),
(344,352,o),
(330,366,o),
(305,366,cs),
(79,367,ls),
(52,367,o),
(37,352,o),
(41,324,cs),
(69,163,o),
(232,-15,o),
(364,-15,cs),
(451,-15,o),
(531,39,o),
(586,105,cs),
(668,195,o),
(716,322,o),
(624,399,cs)
);
}
);
width = 714;
}
);
unicode = 83;
},
{
glyphname = T;
lastChange = "2023-12-05 07:15:44 +0000";
layers = (
{
layerId = m01;
shapes = (
{
closed = 1;
nodes = (
(762,504,o),
(776,518,o),
(776,541,cs),
(776,772,ls),
(776,787,o),
(766,801,o),
(753,801,cs),
(70,801,ls),
(44,801,o),
(30,787,o),
(30,761,cs),
(30,720,ls),
(30,702,o),
(41,689,o),
(59,684,cs),
(746,508,ls)
);
},
{
closed = 1;
nodes = (
(240,33,ls),
(240,16,o),
(254,1,o),
(271,1,cs),
(512,1,ls),
(535,1,o),
(545,19,o),
(545,42,cs),
(545,507,ls),
(545,520,o),
(538,535,o),
(526,539,cs),
(240,645,l)
);
}
);
width = 776;
}
);
unicode = 84;
},
{
glyphname = U;
lastChange = "2023-12-04 16:56:27 +0000";
layers = (
{
layerId = m01;
shapes = (
{
closed = 1;
nodes = (
(441,803,ls),
(418,803,o),
(401,785,o),
(401,761,cs),
(398,376,o),
(383,63,o),
(365,63,cs),
(347,63,o),
(332,376,o),
(329,761,cs),
(329,785,o),
(312,803,o),
(289,803,cs),
(71,803,ls),
(48,803,o),
(30,785,o),
(30,762,cs),
(30,377,l),
(31,316,ls),
(35,98,o),
(185,-18,o),
(365,-19,cs),
(546,-20,o),
(692,98,o),
(699,316,cs),
(701,377,l),
(701,762,ls),
(701,785,o),
(683,803,o),
(660,803,cs)
);
}
);
width = 731;
}
);
unicode = 85;
},
{
glyphname = V;
lastChange = "2023-12-05 17:28:36 +0000";
layers = (
{
layerId = m01;
shapes = (
{
closed = 1;
nodes = (
(560,-22,o),
(720,479,o),
(769,747,cs),
(774,775,o),
(755,797,o),
(728,797,cs),
(476,797,ls),
(454,797,o),
(438,779,o),
(438,755,cs),
(435,370,o),
(420,58,o),
(403,58,cs),
(386,58,o),
(371,370,o),
(368,755,cs),
(368,779,o),
(352,797,o),
(330,797,cs),
(78,797,ls),
(51,797,o),
(34,764,o),
(42,722,cs),
(95,449,o),
(250,-22,o),
(402,-22,cs)
);
}
);
width = 810;
}
);
unicode = 86;
},
{
glyphname = W;
lastChange = "2023-11-29 20:18:04 +0000";
layers = (
{
layerId = m01;
shapes = (
{
closed = 1;
nodes = (
(842,2,o),
(859,21,o),
(861,43,cs),
(911,760,l),
(911,783,o),
(894,801,o),
(871,801,c),
(588,802,l),
(573,802,o),
(562,790,o),
(566,774,c),
(629,529,o),
(693,102,o),
(689,101,cs),
(684,100,o),
(654,224,o),
(622,378,c),
(539,705,o),
(526,726,o),
(508,744,cs),
(485,766,o),
(455,767,o),
(433,744,cs),
(415,726,o),
(402,705,o),
(319,378,c),
(287,224,o),
(257,100,o),
(252,101,cs),
(248,102,o),
(312,529,o),
(375,774,c),
(379,790,o),
(368,802,o),
(353,802,c),
(70,801,l),
(47,801,o),
(30,783,o),
(30,760,c),
(80,43,ls),
(82,21,o),
(99,2,o),
(121,2,cs),
(314,1,o),
(413,-17,o),
(454,98,c),
(471,145,l),
(487,98,l),
(528,-17,o),
(627,2,o),
(820,2,cs)
);
}
);
width = 941;
}
);
unicode = 87;
},
{
glyphname = X;
lastChange = "2023-12-04 17:24:38 +0000";
layers = (
{
layerId = m01;
shapes = (
{
closed = 1;
nodes = (
(597,403,o),
(776,666,o),
(810,788,cs),
(813,802,o),
(799,809,o),
(772,809,cs),
(492,809,ls),
(467,809,o),
(452,802,o),
(452,789,cs),
(449,687,o),
(431,446,o),
(420,446,cs),
(401,446,o),
(390,687,o),
(389,789,cs),
(389,802,o),
(375,809,o),
(349,809,cs),
(68,809,ls),
(41,809,o),
(27,802,o),
(31,788,cs),
(65,667,o),
(244,404,o),
(420,403,cs)
);
},
{
closed = 1;
nodes = (
(244,405,o),
(65,142,o),
(31,21,cs),
(27,7,o),
(41,0,o),
(68,0,cs),
(349,0,ls),
(375,0,o),
(389,7,o),
(389,20,cs),
(390,122,o),
(401,363,o),
(420,363,cs),
(431,363,o),
(449,122,o),
(452,20,cs),
(452,7,o),
(467,0,o),
(492,0,cs),
(772,0,ls),
(799,0,o),
(813,7,o),
(810,21,cs),
(776,143,o),
(597,406,o),
(420,406,cs)
);
}
);
width = 810;
}
);
unicode = 88;
},
{
glyphname = Y;
lastChange = "2023-11-29 20:18:48 +0000";
layers = (
{
layerId = m01;
shapes = (
{
closed = 1;
nodes = (
(367,378,o),
(380,380,o),
(391,383,c),
(311,41,l),
(306,18,o),
(321,0,o),
(344,0,c),
(535,0,l),
(552,0,o),
(562,14,o),
(566,31,c),
(709,666,o),
(588,154,o),
(740,787,c),
(744,805,o),
(725,809,o),
(706,809,c),
(451,809,l),
(429,809,o),
(415,802,o),
(415,788,c),
(412,680,o),
(395,426,o),
(385,426,c),
(368,426,o),
(357,680,o),
(356,788,c),
(356,802,o),
(343,809,o),
(319,809,c),
(64,809,l),
(40,809,o),
(27,802,o),
(30,787,cs),
(45,712,o),
(49,633,o),
(75,560,cs),
(108,467,o),
(179,406,o),
(277,388,cs),
(302,384,o),
(329,378,o),
(355,378,cs)
);
}
);
width = 741;
}
);
unicode = 89;
},
{
glyphname = A.001;
lastChange = "2023-12-06 05:58:58 +0000";
layers = (
{
layerId = m01;
shapes = (
{
closed = 1;
nodes = (
(248,817,o),
(87,346,o),
(32,73,cs),
(24,31,o),
(42,-2,o),
(70,-2,cs),
(331,-2,ls),
(354,-2,o),
(371,16,o),
(371,40,cs),
(374,425,o),
(389,737,o),
(407,737,cs),
(425,737,o),
(440,425,o),
(443,40,cs),
(443,16,o),
(460,-2,o),
(483,-2,cs),
(744,-2,ls),
(772,-2,o),
(792,20,o),
(787,48,cs),
(736,316,o),
(570,817,o),
(406,817,cs)
);
},
{
closed = 1;
nodes = (
(373,248,l),
(444,248,l),
(444,285,l),
(373,285,l)
);
}
);
width = 840;
}
);
},
{
glyphname = E.001;
lastChange = "2023-12-05 14:20:32 +0000";
layers = (
{
layerId = m01;
shapes = (
{
closed = 1;
nodes = (
(18,353,o),
(-17,299,o),
(13,224,cs),
(61,104,o),
(191,0,o),
(314,0,cs),
(501,0,o),
(630,229,o),
(630,299,cs),
(630,319,o),
(616,330,o),
(593,330,cs),
(370,330,ls),
(345,330,o),
(331,317,o),
(330,288,cs),
(320,25,o),
(288,42,o),
(288,245,cs),
(288,289,o),
(283,303,o),
(319,349,cs),
(333,366,o),
(352,382,o),
(359,404,cs),
(360,409,o),
(361,414,o),
(361,418,cs),
(361,471,o),
(297,480,o),
(297,543,cs),
(297,816,o),
(337,824,o),
(345,527,cs),
(346,498,o),
(360,486,o),
(384,486,cs),
(590,486,ls),
(611,486,o),
(626,496,o),
(626,515,cs),
(626,591,o),
(491,819,o),
(321,819,cs),
(184,819,o),
(28,679,o),
(28,557,cs),
(28,491,o),
(80,453,o),
(135,431,cs),
(156,423,o),
(177,416,o),
(198,410,c),
(166,402,o),
(134,396,o),
(103,384,cs)
);
}
);
width = 655;
}
);
},
{
glyphname = M.001;
lastChange = "2023-11-29 10:31:18 +0000";
layers = (
{
layerId = m01;
shapes = (
{
closed = 1;
nodes = (
(327,0,ls),
(350,0,o),
(368,17,o),
(368,40,cs),
(369,267,o),
(371,733,o),
(389,733,cs),
(399,733,o),
(407,269,o),
(410,40,cs),
(411,17,o),
(428,0,o),
(451,0,cs),
(572,0,ls),
(595,0,o),
(612,17,o),
(613,40,cs),
(616,269,o),
(624,733,o),
(634,733,cs),
(652,733,o),
(654,267,o),
(655,40,cs),
(655,17,o),
(673,0,o),
(696,0,cs),
(973,0,ls),
(1001,0,o),
(1020,22,o),
(1015,49,cs),
(967,315,o),
(799,817,o),
(634,819,cs),
(592,819,o),
(551,790,o),
(511,743,c),
(471,790,o),
(430,819,o),
(389,819,cs),
(224,817,o),
(56,315,o),
(8,49,cs),
(3,22,o),
(22,0,o),
(50,0,cs)
);
}
);
width = 1025;
}
);
},
{
glyphname = M.003;
layers = (
{
layerId = m01;
shapes = (
{
closed = 1;
nodes = (
(350,0,ls),
(373,0,o),
(391,17,o),
(391,40,cs),
(392,267,o),
(394,733,o),
(412,733,cs),
(422,733,o),
(430,269,o),
(433,40,cs),
(434,17,o),
(451,0,o),
(474,0,cs),
(595,0,ls),
(618,0,o),
(635,17,o),
(636,40,cs),
(639,269,o),
(647,733,o),
(657,733,cs),
(675,733,o),
(677,267,o),
(678,40,cs),
(678,17,o),
(696,0,o),
(719,0,cs),
(996,0,ls),
(1024,0,o),
(1043,22,o),
(1038,49,cs),
(990,315,o),
(822,817,o),
(657,819,cs),
(615,819,o),
(574,790,o),
(534,743,c),
(494,790,o),
(453,819,o),
(412,819,cs),
(247,817,o),
(79,315,o),
(31,49,cs),
(26,22,o),
(45,0,o),
(73,0,cs)
);
}
);
width = 1069;
}
);
},
{
glyphname = e;
lastChange = "2023-11-29 20:04:05 +0000";
layers = (
{
layerId = m01;
shapes = (
{
closed = 1;
nodes = (
(309,277,ls),
(290,277,o),
(282,266,o),
(282,246,cs),
(280,131,o),
(275,43,o),
(267,43,cs),
(259,43,o),
(252,155,o),
(252,291,cs),
(252,427,o),
(259,539,o),
(267,539,cs),
(275,539,o),
(280,450,o),
(282,335,cs),
(282,314,o),
(290,304,o),
(309,304,cs),
(505,304,ls),
(524,304,o),
(534,315,o),
(530,337,cs),
(510,485,o),
(388,600,o),
(268,600,cs),
(135,600,o),
(0,460,o),
(0,291,cs),
(0,120,o),
(149,-12,o),
(268,-12,cs),
(376,-12,o),
(510,95,o),
(530,245,cs),
(534,265,o),
(523,277,o),
(505,277,cs)
);
},
{
closed = 1;
nodes = (
(197,304,l),
(343,304,l),
(343,338,l),
(197,338,l)
);
}
);
width = 561;
}
);
unicode = 101;
},
{
glyphname = h;
lastChange = "2023-12-05 17:52:47 +0000";
layers = (
{
layerId = m01;
shapes = (
{
closed = 1;
nodes = (
(241,0,ls),
(262,0,o),
(272,11,o),
(272,31,cs),
(273,183,o),
(275,487,o),
(286,487,cs),
(292,487,o),
(297,184,o),
(300,31,cs),
(300,11,o),
(312,0,o),
(331,0,cs),
(546,0,l),
(546,29,ls),
(546,194,o),
(404,544,o),
(286,544,cs),
(255,543,o),
(222,505,o),
(189,449,c),
(268,818,l),
(272,836,o),
(260,850,o),
(242,850,cs),
(55,850,ls),
(42,850,o),
(31,839,o),
(31,826,cs),
(30,31,ls),
(30,11,o),
(41,0,o),
(61,0,cs)
);
}
);
width = 536;
}
);
unicode = 104;
},
{
glyphname = i;
lastChange = "2023-12-05 17:52:56 +0000";
layers = (
{
layerId = m01;
shapes = (
{
closed = 1;
nodes = (
(40,41,ls),
(40,18,o),
(58,0,o),
(81,0,cs),
(216,0,ls),
(239,0,o),
(257,18,o),
(257,41,cs),
(257,559,ls),
(257,582,o),
(239,600,o),
(216,600,cs),
(81,600,ls),
(58,600,o),
(40,582,o),
(40,559,cs)
);
},
{
closed = 1;
nodes = (
(109,851,o),
(56,808,o),
(56,755,cs),
(56,703,o),
(109,660,o),
(151,660,cs),
(193,660,o),
(246,703,o),
(246,755,cs),
(246,808,o),
(193,851,o),
(151,851,c)
);
}
);
width = 297;
}
);
unicode = 105;
},
{
glyphname = k;
lastChange = "2023-11-29 20:30:26 +0000";
layers = (
{
layerId = m01;
shapes = (
{
closed = 1;
nodes = (
(30,39,ls),
(30,16,o),
(48,-2,o),
(71,-2,cs),
(209,-2,ls),
(232,-2,o),
(250,16,o),
(250,39,cs),
(250,759,ls),
(250,782,o),
(232,800,o),
(209,800,cs),
(71,800,ls),
(48,800,o),
(30,782,o),
(30,759,cs)
);
},
{
closed = 1;
nodes = (
(250,348,l),
(253,354,o),
(256,357,o),
(259,357,cs),
(265,357,o),
(268,347,o),
(269,330,cs),
(280,26,ls),
(281,9,o),
(291,-1,o),
(308,-1,cs),
(508,-1,ls),
(528,-1,o),
(538,10,o),
(533,30,cs),
(500,136,o),
(423,308,o),
(338,361,c),
(411,383,o),
(477,468,o),
(515,525,cs),
(525,540,o),
(514,552,o),
(492,552,cs),
(302,552,ls),
(285,552,o),
(275,542,o),
(275,524,cs),
(273,488,o),
(271,440,o),
(269,408,cs),
(268,391,o),
(264,381,o),
(259,381,cs),
(256,381,o),
(253,384,o),
(250,390,c)
);
}
);
width = 564;
}
);
unicode = 107;
},
{
glyphname = n;
lastChange = "2023-11-29 12:51:31 +0000";
layers = (
{
layerId = m01;
shapes = (
{
closed = 1;
nodes = (
(234,0,ls),
(260,0,o),
(274,14,o),
(274,40,cs),
(274,221,o),
(267,536,o),
(279,536,cs),
(285,536,o),
(300,221,o),
(304,40,cs),
(305,14,o),
(320,0,o),
(345,0,cs),
(557,0,ls),
(583,0,o),
(598,14,o),
(596,41,cs),
(585,176,o),
(536,395,o),
(468,507,cs),
(434,565,o),
(372,600,o),
(304,600,cs),
(71,600,ls),
(45,600,o),
(31,586,o),
(31,560,cs),
(30,40,ls),
(30,14,o),
(44,0,o),
(70,0,cs)
);
}
);
width = 596;
}
);
unicode = 110;
},
{
glyphname = o;
lastChange = "2023-11-29 20:31:50 +0000";
layers = (
{
layerId = m01;
shapes = (
{
closed = 1;
nodes = (
(281,45,o),
(266,155,o),
(266,291,c),
(266,428,o),
(281,538,o),
(289,538,c),
(297,538,o),
(312,428,o),
(312,291,c),
(312,155,o),
(297,45,o),
(289,45,c)
);
},
{
closed = 1;
nodes = (
(160,600,o),
(30,461,o),
(30,291,c),
(30,122,o),
(160,-17,o),
(289,-17,c),
(419,-17,o),
(548,122,o),
(548,291,c),
(548,461,o),
(419,600,o),
(289,600,c)
);
}
);
width = 596;
}
);
unicode = 111;
},
{
glyphname = s;
lastChange = "2023-12-05 17:27:17 +0000";
layers = (
{
layerId = m01;
shapes = (
{
closed = 1;
nodes = (
(440,331,o),
(381,342,o),
(338,352,cs),
(324,356,o),
(279,360,o),
(270,374,cs),
(264,383,o),
(262,402,o),
(262,424,cs),
(264,630,o),
(292,622,o),
(296,416,cs),
(296,395,o),
(307,375,o),
(326,375,cs),
(488,375,ls),
(505,375,o),
(516,383,o),
(516,397,cs),
(516,445,o),
(421,620,o),
(277,620,cs),
(167,620,o),
(44,500,o),
(44,423,cs),
(44,378,o),
(89,349,o),
(131,335,cs),
(176,318,o),
(225,314,o),
(270,295,cs),
(281,290,o),
(301,288,o),
(301,270,cs),
(301,40,o),
(262,-110,o),
(262,244,cs),
(262,266,o),
(251,276,o),
(232,276,cs),
(59,277,ls),
(39,277,o),
(27,266,o),
(30,244,cs),
(51,121,o),
(176,-15,o),
(277,-15,cs),
(344,-15,o),
(404,26,o),
(447,77,cs),
(509,145,o),
(546,243,o),
(475,301,cs)
);
}
);
width = 546;
}
);
unicode = 115;
},
{
glyphname = u;
lastChange = "2023-12-05 18:58:58 +0000";
layers = (
{
layerId = m01;
shapes = (
{
closed = 1;
nodes = (
(348,597,ls),
(331,597,o),
(318,584,o),
(318,566,cs),
(316,277,o),
(305,42,o),
(291,42,cs),
(278,42,o),
(266,277,o),
(264,566,cs),
(264,584,o),
(251,597,o),
(234,597,cs),
(71,597,ls),
(53,597,o),
(40,584,o),
(40,566,cs),
(40,278,l),
(41,232,ls),
(44,68,o),
(156,-19,o),
(291,-19,cs),
(427,-20,o),
(536,68,o),
(542,232,cs),
(543,278,l),
(543,566,ls),
(543,584,o),
(530,597,o),
(512,597,cs)
);
}
);
width = 586;
}
);
unicode = 117;
},
{
glyphname = v;
lastChange = "2023-12-05 07:59:27 +0000";
layers = (
{
layerId = m01;
shapes = (
{
closed = 1;
nodes = (
(430,0,o),
(552,367,o),
(589,563,cs),
(593,585,o),
(577,600,o),
(557,600,cs),
(366,600,ls),
(349,600,o),
(336,588,o),
(336,569,cs),
(334,287,o),
(323,59,o),
(310,59,cs),
(298,59,o),
(286,287,o),
(284,569,cs),
(284,588,o),
(271,600,o),
(254,600,cs),
(63,600,ls),
(44,600,o),
(29,576,o),
(35,545,cs),
(76,345,o),
(193,0,o),
(310,0,cs)
);
}
);
width = 600;
}
);
unicode = 118;
},
{
glyphname = zero;
lastChange = "2023-12-05 19:07:31 +0000";
layers = (
{
layerId = m01;
shapes = (
{
closed = 1;
nodes = (
(405,-17,o),
(363,-17,o),
(352,343,cs),
(351,380,o),
(351,418,o),
(352,456,cs),
(358,873,o),
(408,818,o),
(416,456,cs),
(416,437,o),
(417,418,o),
(417,399,cs),
(417,380,o),
(417,362,o),
(416,343,cs)
);
},
{
closed = 1;
nodes = (
(213,817,o),
(40,630,o),
(40,400,cs),
(40,168,o),
(213,-18,o),
(385,-18,cs),
(555,-18,o),
(728,168,o),
(728,400,cs),
(728,630,o),
(555,817,o),
(385,817,cs)
);
}
);
width = 768;
}
);
unicode = 48;
},
{
glyphname = one;
lastChange = "2023-12-05 16:25:04 +0000";
layers = (
{
layerId = m01;
shapes = (
{
closed = 1;
nodes = (
(63,800,ls),
(50,800,o),
(40,786,o),
(40,771,cs),
(40,540,ls),
(40,517,o),
(54,501,o),
(70,507,cs),
(506,675,o),
(542,715,o),
(180,488,cs),
(167,480,o),
(161,469,o),
(161,456,cs),
(161,41,ls),
(161,19,o),
(159,0,o),
(184,0,cs),
(435,0,ls),
(452,0,o),
(466,15,o),
(466,32,cs),
(461,760,ls),
(461,786,o),
(462,800,o),
(436,800,cs)
);
}
);
width = 466;
}
);
unicode = 49;
},
{
glyphname = two;
lastChange = "2023-12-05 16:15:33 +0000";
layers = (
{
annotations = (
{
pos = (74.105,368.14);
type = Text;
}
);
layerId = m01;
shapes = (
{
closed = 1;
nodes = (
(238,148,ls),
(234,146,o),
(630,420,o),
(630,579,cs),
(630,709,o),
(495,821,o),
(356,821,cs),
(221,821,o),
(95,676,o),
(54,533,cs),
(46,507,o),
(55,488,o),
(87,488,cs),
(293,488,ls),
(317,488,o),
(331,500,o),
(332,529,cs),
(338,741,o),
(375,848,o),
(375,655,cs),
(375,557,o),
(349,489,o),
(289,413,cs),
(165,255,o),
(157,247,o),
(54,93,cs),
(24,48,o),
(43,0,o),
(98,0,cs),
(586,1,ls),
(599,1,o),
(609,15,o),
(609,30,cs),
(609,261,ls),
(609,284,o),
(595,301,o),
(579,294,cs)
);
}
);
width = 670;
}
);
unicode = 50;
},
{
glyphname = three;
lastChange = "2023-12-05 16:43:41 +0000";
layers = (
{
layerId = m01;
shapes = (
{
closed = 1;
nodes = (
(545,388,o),
(513,394,o),
(480,402,c),
(502,408,o),
(523,415,o),
(544,423,cs),
(600,446,o),
(653,485,o),
(653,552,cs),
(653,676,o),
(494,819,o),
(355,819,cs),
(181,819,o),
(44,586,o),
(44,509,cs),
(44,490,o),
(59,479,o),
(80,479,cs),
(290,479,ls),
(315,479,o),
(329,492,o),
(330,521,cs),
(338,824,o),
(379,816,o),
(379,538,cs),
(379,473,o),
(314,464,o),
(314,410,cs),
(314,406,o),
(315,401,o),
(316,396,cs),
(323,373,o),
(342,357,o),
(357,340,cs),
(393,293,o),
(388,279,o),
(388,234,cs),
(388,27,o),
(356,9,o),
(346,278,cs),
(345,307,o),
(330,320,o),
(305,320,cs),
(77,320,ls),
(54,320,o),
(40,309,o),
(40,289,cs),
(40,217,o),
(171,-16,o),
(362,-16,cs),
(487,-16,o),
(620,90,o),
(669,212,cs),
(699,289,o),
(664,344,o),
(577,375,cs)
);
}
);
width = 720;
}
);
unicode = 51;
},
{
glyphname = five;
lastChange = "2023-12-05 19:12:24 +0000";
layers = (
{
layerId = m01;
shapes = (
{
closed = 1;
nodes = (
(325,825,o),
(332,526,cs),
(333,497,o),
(345,485,o),
(368,485,cs),
(565,485,ls),
(590,485,o),
(595,502,o),
(595,529,cs),
(598,759,ls),
(598,783,o),
(581,800,o),
(557,800,cs),
(71,800,ls),
(48,800,o),
(30,782,o),
(30,759,cs),
(30,524,ls),
(30,424,o),
(210,423,o),
(300,383,cs),
(331,369,o),
(341,313,o),
(341,252,cs),
(341,139,o),
(291,-96,o),
(291,277,cs),
(291,305,o),
(279,320,o),
(255,320,cs),
(35,321,ls),
(12,321,o),
(-3,307,o),
(1,279,cs),
(25,121,o),
(186,-16,o),
(308,-16,cs),
(472,-16,o),
(624,160,o),
(624,297,cs),
(624,336,o),
(610,372,o),
(580,400,cs),
(539,439,o),
(332,442,o),
(306,483,cs),
(299,496,o),
(296,520,o),
(296,549,cs),
(296,797,o)
);
}
);
width = 664;
}
);
unicode = 53;
},
{
glyphname = six;
lastChange = "2023-12-05 19:08:39 +0000";
layers = (
{
layerId = m01;
shapes = (
{
closed = 1;
nodes = (
(282,407,l),
(282,408,o),
(285,409,o),
(287,408,c),
(391,350,o),
(429,170,o),
(429,95,c),
(429,93,o),
(424,93,o),
(424,94,c)
);
},
{
closed = 1;
nodes = (
(332,404,o),
(343,574,cs),
(354,730,o),
(377,868,o),
(382,542,c),
(383,514,o),
(397,501,o),
(421,501,c),
(634,501,l),
(656,501,o),
(671,512,o),
(671,531,cs),
(671,535,o),
(670,540,o),
(668,545,c),
(626,682,o),
(506,818,o),
(366,818,cs),
(181,818,o),
(40,585,o),
(40,408,cs),
(40,275,o),
(101,139,o),
(211,59,c),
(267,18,o),
(320,2,o),
(391,4,cs),
(514,7,o),
(668,184,o),
(668,316,cs),
(668,340,o),
(664,362,o),
(653,381,cs),
(590,500,o)
);
}
);
width = 711;
}
);
unicode = 54;
},
{
glyphname = seven;
lastChange = "2023-12-05 19:08:52 +0000";
layers = (
{
layerId = m01;
shapes = (
{
closed = 1;
nodes = (
(22.958,800,ls),
(9.958,800,o),
(-0.042,786,o),
(-0.042,771,cs),
(-0.042,540,ls),
(-0.042,517,o),
(14,501,o),
(29.958,507,cs),
(466,675,o),
(622,755,o),
(259.958,528,cs),
(247,520,o),
(244,509,o),
(240.958,496,cs),
(150.958,41,ls),
(147,19,o),
(149,0,o),
(173.958,0,cs),
(384.958,0,ls),
(401.958,0,o),
(413,15,o),
(415.958,32,cs),
(550.958,760,ls),
(556,786,o),
(552,800,o),
(525.958,800,cs)
);
}
);
width = 593;
}
);
unicode = 55;
},
{
glyphname = eight;
lastChange = "2023-12-05 19:05:33 +0000";
layers = (
{
layerId = m01;
shapes = (
{
closed = 1;
nodes = (
(380,21,o),
(332,21,o),
(332,235,c),
(332,395,o),
(380,395,o),
(380,235,c)
);
},
{
closed = 1;
nodes = (
(371,831,o),
(371,539,c),
(371,519,o),
(372,491,o),
(356,491,cs),
(341,491,o),
(341,519,o),
(341,539,c),
(341,831,o)
);
},
{
closed = 1;
nodes = (
(602,371,o),
(472,403,c),
(538,421,o),
(645,457,o),
(645,553,cs),
(645,674,o),
(493,814,o),
(356,820,c),
(219,814,o),
(67,674,o),
(67,553,cs),
(67,458,o),
(171,422,o),
(240,403,c),
(109,371,o),
(4,333,o),
(51,213,c),
(100,92,o),
(232,-14,o),
(356,-15,c),
(481,-14,o),
(613,92,o),
(661,213,c),
(708,334,o)
);
}
);
width = 712;
}
);
unicode = 56;
},
{
glyphname = period;
lastChange = "2023-12-05 17:59:33 +0000";
layers = (
{
layerId = m01;
shapes = (
{
closed = 1;
nodes = (
(93,192,o),
(40,149,o),
(40,96,cs),
(40,44,o),
(93,1,o),
(135,1,cs),
(177,1,o),
(230,44,o),
(230,96,cs),
(230,149,o),
(177,192,o),
(135,192,c)
);
}
);
width = 270;
}
);
unicode = 46;
},
{
glyphname = comma;
lastChange = "2023-12-05 18:31:04 +0000";
layers = (
{
layerId = m01;
shapes = (
{
closed = 1;
nodes = (
(204,151,ls),
(226,151,o),
(247,139,o),
(248,119,cs),
(255,46,o),
(195,-37,o),
(121,-81,cs),
(87,-101,o),
(50,-74,o),
(50,-37,cs),
(50,107,ls),
(50,132,o),
(71,151,o),
(98,151,cs)
);
}
);
width = 299;
}
);
unicode = 44;
},
{
glyphname = semicolon;
lastChange = "2023-12-05 18:13:05 +0000";
layers = (
{
layerId = m01;
shapes = (
{
closed = 1;
nodes = (
(107,457,o),
(54,414,o),
(54,361,cs),
(54,309,o),
(107,266,o),
(149,266,cs),
(191,266,o),
(244,309,o),
(244,361,cs),
(244,414,o),
(191,457,o),
(149,457,cs)
);
},
{
closed = 1;
nodes = (
(204,151,ls),
(226,151,o),
(247,139,o),
(248,119,cs),
(255,46,o),
(195,-37,o),
(121,-81,cs),
(87,-101,o),
(50,-74,o),
(50,-37,cs),
(50,107,ls),
(50,132,o),
(71,151,o),
(98,151,cs)
);
}
);
width = 299;
}
);
unicode = 59;
},
{
glyphname = exclam;
lastChange = "2023-12-05 17:56:42 +0000";
layers = (
{
layerId = m01;
shapes = (
{
closed = 1;
nodes = (
(40,236,o),
(58,219,o),
(81,219,cs),
(216,219,ls),
(239,219,o),
(257,236,o),
(257,259,cs),
(257,761,ls),
(257,784,o),
(239,801,o),
(216,801,cs),
(81,801,ls),
(58,801,o),
(40,784,o),
(40,761,cs),
(40,259,ls)
);
},
{
closed = 1;
nodes = (
(107,171,o),
(54,128,o),
(54,75,cs),
(54,23,o),
(107,-20,o),
(149,-20,cs),
(191,-20,o),
(244,23,o),
(244,75,cs),
(244,128,o),
(191,171,o),
(149,171,c)
);
}
);
width = 297;
}
);
unicode = 33;
},
{
glyphname = question;
lastChange = "2023-12-05 18:14:21 +0000";
layers = (
{
layerId = m01;
shapes = (
{
closed = 1;
nodes = (
(127,829,o),
(0,628,o),
(0,562,cs),
(0,545,o),
(15,535,o),
(36,535,cs),
(226,535,ls),
(251,535,o),
(265,547,o),
(266,571,cs),
(274,782,o),
(311,814,o),
(315,626,cs),
(316,598,o),
(314,568,o),
(298,542,cs),
(282,514,o),
(259,491,o),
(242,462,cs),
(213,415,o),
(195,360,o),
(188,306,cs),
(186,287,o),
(184,270,o),
(184,253,cs),
(183,232,o),
(201,216,o),
(225,216,cs),
(361,216,ls),
(384,216,o),
(402,231,o),
(402,252,cs),
(404,347,o),
(415,382,o),
(496,455,cs),
(563,514,o),
(580,569,o),
(580,622,cs),
(580,726,o),
(421,829,o),
(301,829,cs)
);
},
{
closed = 1;
nodes = (
(248,172,o),
(195,129,o),
(195,76,cs),
(195,24,o),
(248,-19,o),
(290,-19,cs),
(332,-19,o),
(385,24,o),
(385,76,cs),
(385,129,o),
(332,172,o),
(290,172,c)
);
}
);
width = 620;
}
);
unicode = 63;
},
{
glyphname = hyphen;
lastChange = "2023-12-05 18:38:57 +0000";
layers = (
{
layerId = m01;
shapes = (
{
closed = 1;
nodes = (
(40,278,ls),
(40,255,o),
(58,237,o),
(81,237,cs),
(319,237,ls),
(342,237,o),
(360,255,o),
(360,278,cs),
(360,400,ls),
(360,423,o),
(342,441,o),
(319,441,cs),
(81,441,ls),
(58,441,o),
(40,423,o),
(40,400,cs)
);
}
);
width = 400;
}
);
unicode = 45;
},
{
glyphname = parenleft;
lastChange = "2023-12-05 18:20:48 +0000";
layers = (
{
layerId = m01;
shapes = (
{
closed = 1;
nodes = (
(313,850,ls),
(330,850,o),
(341,835,o),
(335,819,cs),
(283,678,o),
(230,529,o),
(230,349,cs),
(230,169,o),
(283,20,o),
(335,-121,cs),
(341,-137,o),
(330,-152,o),
(313,-152,cs),
(266,-152,ls),
(258,-152,o),
(250,-149,o),
(243,-143,cs),
(120,-23,o),
(40,141,o),
(40,349,cs),
(40,557,o),
(120,721,o),
(243,841,cs),
(250,847,o),
(258,850,o),
(266,850,cs)
);
}
);
width = 377;
}
);
unicode = 40;
},
{
glyphname = parenright;
lastChange = "2023-12-05 18:20:56 +0000";
layers = (
{
layerId = m01;
shapes = (
{
closed = 1;
nodes = (
(119,850,o),
(127,847,o),
(134,841,cs),
(257,721,o),
(337,557,o),
(337,349,cs),
(337,141,o),
(257,-23,o),
(134,-143,cs),
(127,-149,o),
(119,-152,o),
(111,-152,cs),
(64,-152,ls),
(47,-152,o),
(36,-137,o),
(42,-121,cs),
(94,20,o),
(147,169,o),
(147,349,cs),
(147,529,o),
(94,678,o),
(42,819,cs),
(36,835,o),
(47,850,o),
(64,850,cs),
(111,850,ls)
);
}
);
width = 377;
}
);
unicode = 41;
},
{
glyphname = ampersand;
lastChange = "2023-12-05 20:32:08 +0000";
layers = (
{
layerId = m01;
shapes = (
{
closed = 1;
nodes = (
(220,664,l),
(219,665,o),
(218,667,o),
(219,667,c),
(220,670,o),
(225,669,o),
(230,668,c),
(327,652,o),
(429,570,o),
(444,525,c),
(445,523,o),
(442,520,o),
(439,522,c)
);
},
{
closed = 1;
nodes = (
(392,37,o),
(389,37,o),
(388,39,c),
(260,408,l),
(259,410,o),
(261,410,o),
(263,409,c),
(355,334,o),
(401,139,o),
(392,40,c)
);
},
{
closed = 1;
nodes = (
(607,442,l),
(584,442,o),
(566,423,o),
(566,396,c),
(566,320,o),
(567,311,o),
(565,315,c),
(514,456,l),
(548,496,l),
(572,524,o),
(578,559,o),
(578,594,c),
(578,688,o),
(500,807,o),
(332,807,c),
(210,807,o),
(85,712,o),
(85,594,c),
(85,536,o),
(116,481,o),
(163,444,c),
(92,395,o),
(40,320,o),
(40,236,c),
(40,193,o),
(53,150,o),
(76,114,c),
(99,77,o),
(132,47,o),
(169,25,c),
(207,2,o),
(252,-14,o),
(297,-17,c),
(342,-20,o),
(396,-15,o),
(429,19,c),
(443,-11,l),
(619,-10,l),
(653,-10,o),
(676,20,o),
(663,54,c),
(623,161,l),
(622,163,o),
(622,167,o),
(625,169,c),
(670,199,o),
(742,291,o),
(765,344,c),
(772,359,o),
(775,380,o),
(776,399,c),
(778,424,o),
(759,442,o),
(735,442,c)
);
}
);
width = 816;
}
);
unicode = 38;
},
{
glyphname = dollar;
lastChange = "2023-12-05 19:46:13 +0000";
layers = (
{
layerId = m01;
shapes = (
{
closed = 1;
nodes = (
(340,900,ls),
(317,900,o),
(299,882,o),
(299,859,cs),
(299,800,l),
(454,800,l),
(454,859,ls),
(454,882,o),
(436,900,o),
(413,900,cs)
);
},
{
closed = 1;
nodes = (
(299,10,l),
(299,-49,ls),
(299,-72,o),
(317,-90,o),
(340,-90,cs),
(413,-90,ls),
(436,-90,o),
(454,-72,o),
(454,-49,cs),
(454,10,l)
);
},
{
closed = 1;
nodes = (
(595,438,o),
(518,452,o),
(462,465,cs),
(444,471,o),
(385,476,o),
(373,494,cs),
(365,506,o),
(362,531,o),
(362,560,cs),
(365,829,o),
(401,819,o),
(407,549,cs),
(407,522,o),
(422,496,o),
(447,496,cs),
(658,496,ls),
(681,496,o),
(695,506,o),
(695,525,cs),
(695,588,o),
(570,817,o),
(382,817,cs),
(238,817,o),
(77,659,o),
(77,559,cs),
(77,500,o),
(136,462,o),
(191,443,cs),
(250,420,o),
(314,415,o),
(373,391,cs),
(388,384,o),
(414,381,o),
(414,358,cs),
(414,56,o),
(362,-140,o),
(362,324,cs),
(362,352,o),
(348,366,o),
(323,366,cs),
(97,367,ls),
(70,367,o),
(55,352,o),
(59,324,cs),
(87,163,o),
(250,-15,o),
(382,-15,cs),
(469,-15,o),
(549,39,o),
(604,105,cs),
(686,195,o),
(734,322,o),
(642,399,cs)
);
}
);
width = 734;
}
);
unicode = 36;
},
{
glyphname = euro;
lastChange = "2023-12-05 19:46:24 +0000";
layers = (
{
layerId = m01;
shapes = (
{
closed = 1;
nodes = (
(498,376,ls),
(480,376,o),
(465,360,o),
(465,337,cs),
(461,250,o),
(451,47,o),
(440,47,cs),
(432,47,o),
(423,166,o),
(418,340,cs),
(417,377,o),
(417,415,o),
(418,453,cs),
(424,627,o),
(432,739,o),
(440,739,cs),
(452,739,o),
(461,542,o),
(465,455,cs),
(465,432,o),
(480,416,o),
(498,416,cs),
(739,416,ls),
(762,416,o),
(779,436,o),
(775,463,cs),
(746,661,o),
(594,814,o),
(441,814,cs),
(272,814,o),
(102,627,o),
(102,397,cs),
(102,165,o),
(272,-21,o),
(441,-21,cs),
(594,-21,o),
(746,130,o),
(775,329,cs),
(779,355,o),
(762,376,o),
(739,376,cs)
);
},
{
closed = 1;
nodes = (
(19,483,ls),
(19,460,o),
(37,442,o),
(60,442,cs),
(144,442,l),
(144,597,l),
(60,597,ls),
(37,597,o),
(19,579,o),
(19,556,cs)
);
},
{
closed = 1;
nodes = (
(20,260,ls),
(20,237,o),
(38,219,o),
(61,219,cs),
(145,219,l),
(145,374,l),
(61,374,ls),
(38,374,o),
(20,356,o),
(20,333,cs)
);
}
